<svg viewBox="0 0 300 190" fill="none" xmlns="http://www.w3.org/2000/svg"><style>.mark,.dog{color:#c98e5f}.fill,.laptop{fill:currentColor}.tail{fill:none;stroke:currentColor;stroke-width:7;stroke-linecap:round;stroke-linejoin:round}.detail{fill:#111}.light,.bone,.hand{fill:#fff}.tongue{fill:#e85050}.device{color:#111}.shade{fill:#2b2b2b}.hand{transform-box:fill-box;transform-origin:center;animation:hand .58s infinite ease-in-out}.right{animation-delay:-.29s}@media(prefers-color-scheme:dark){.mark,.dog,.device{color:#fff}.tongue{fill:currentColor}.shade{fill:#cfcfcf}.bone,.hand{fill:#111}}@keyframes hand{0%,100%{transform:translateY(-5px) scale(1.12)}50%{transform:translateY(5px) scale(.76)}}</style><g class="dog"><path class="tail" d="m98 154c-7 0-12 3-14 6-2 4 3 6 7 4"/><path class="fill" d="m94 144c2-28 15-49 32-49s30 21 32 49c2 20-12 30-32 30s-34-10-32-30z"/></g><g class="mark" transform="translate(64 22) scale(.34) translate(-372 -117)"><path class="detail" d="m492 232c-13 0-18 12-16 22 2 11 12 19 22 18 11-1 18-10 17-21s-11-19-23-19zm112 0c-12 0-18 10-16 22 2 11 11 19 22 18s18-10 17-21-11-19-23-19zm-61 36c10-1 23 0 30 5 8 6 8 15 2 22-4 5-10 8-18 11 0 8 8 15 18 15 9 0 14-6 16-14 1-3 7-3 8 1 1 7-7 17-15 20-3 1-7 2-11 3-1 12-8 23-20 27-11 3-21-4-24-16-1-4-1-8 0-12-11-1-22-9-26-19-2-6 5-8 8-3 5 9 14 14 24 12 7-2 11-8 9-14-5-1-12-6-17-13-6-9-2-19 16-25z"/><path class="fill" fill-rule="evenodd" d="m553 124c-3-5-5-8-3-7-9 4-19 15-26 27-8 1-17 4-27 9-5 2-10 5-13 7-7-4-16-7-25-7-12 0-22 6-32 17-20 19-38 44-48 67-7 15-8 29 0 40 8 10 21 15 34 12 19 2 35-13 43-35 8-25 18-46 31-59-10 30-20 58-28 85-13 41 11 72 45 83 14 5 31 8 47 8 17 0 34-3 49-8 34-11 58-42 46-83-8-27-17-54-27-83 14 11 27 32 35 57 8 22 25 36 43 36 16-1 29-12 32-27 4-16-2-33-13-51-12-20-28-38-42-49-12-9-25-12-36-10-8 1-16 4-20 7-12-7-26-13-41-17 2-6 9-15 7-16-11-1-21 3-30 11 0-5 0-10-1-14zm-61 108c-13 0-18 12-16 22 2 11 12 19 22 18 11-1 18-10 17-21s-11-19-23-19zm112 0c-12 0-18 10-16 22 2 11 11 19 22 18s18-10 17-21-11-19-23-19zm-102 8c-5 0-6 4-5 7 1 4 6 5 10 2 3-3 1-8-5-9zm110 0c-4 1-5 5-3 9 2 3 7 3 10-1s-1-8-7-8zm-69 28c10-1 23 0 30 5 8 6 8 15 2 22-4 5-10 8-18 11 0 8 8 15 18 15 9 0 14-6 16-14 1-3 7-3 8 1 1 7-7 17-15 20-3 1-7 2-11 3-1 12-8 23-20 27-11 3-21-4-24-16-1-4-1-8 0-12-11-1-22-9-26-19-2-6 5-8 8-3 5 9 14 14 24 12 7-2 11-8 9-14-5-1-12-6-17-13-6-9-2-19 16-25zm-5 61c-1 10 3 21 13 21s15-10 12-20c-2-3-6-5-9-6 0 7-1 11-5 12-4-1-5-6-1-12-4 1-8 2-10 5z"/><path class="light" d="m502 240c-5 0-6 4-5 7 1 4 6 5 10 2 3-3 1-8-5-9zm110 0c-4 1-5 5-3 9 2 3 7 3 10-1s-1-8-7-8z"/><path class="tongue" d="m538 329c-1 10 3 21 13 21s15-10 12-20c-2-3-6-5-9-6 0 7-1 11-5 12-4-1-5-6-1-12-4 1-8 2-10 5z"/></g><g class="device" transform="translate(86 108)"><circle class="hand" cx="40" cy="52" r="6.4"/><circle class="hand right" cx="54" cy="52" r="6.4"/><rect class="laptop" x="64" y="8" width="72" height="54" rx="10"/><g class="bone" transform="translate(80 26) rotate(-18 20 10)"><circle cx="5" cy="5" r="6"/><circle cx="5" cy="15" r="6"/><circle cx="35" cy="5" r="6"/><circle cx="35" cy="15" r="6"/><rect x="5" y="6" width="30" height="8" rx="4"/></g><path class="laptop" d="m40 58h88c5 0 8 2 8 4 0 3-3 4-8 4h-88c-5 0-8-1-8-4 0-2 3-4 8-4z"/><path class="shade" d="m41 58h29c3 0 5 2 5 4s-2 4-5 4h-29c-5 0-9-1-9-4 0-2 4-4 9-4z"/></g></svg>