<svg viewBox="352 97 398 309" xmlns="http://www.w3.org/2000/svg" fill="#c98e5f">
    <path fill-rule="evenodd" d="
        M 553 124
        C 550 119 548 116 550 117
        C 541 121 531 132 524 144
        C 516 145 507 148 497 153
        C 492 155 487 158 484 160
        C 477 156 468 153 459 153
        C 447 153 437 159 427 170
        C 407 189 389 214 379 237
        C 372 252 371 266 379 277
        C 387 287 400 292 413 289
        C 427 286 436 274 440 258
        C 445 238 452 217 464 199
        C 460 215 454 239 449 264
        C 446 278 436 288 436 302
        C 436 319 447 342 465 357
        C 485 374 516 385 551 386
        C 588 386 620 375 641 355
        C 658 339 667 316 666 294
        C 665 284 658 278 655 266
        C 652 250 649 224 637 202
        C 649 216 657 241 663 264
        C 668 281 682 291 697 290
        C 713 289 726 278 729 263
        C 733 247 727 230 716 212
        C 704 192 688 174 674 163
        C 662 154 649 151 638 153
        C 630 154 622 157 618 160
        C 606 153 592 147 577 143
        C 579 137 586 128 584 127
        C 573 126 563 130 554 138
        C 554 133 554 128 553 124
        Z

        M 492 232
        C 479 232 474 244 476 254
        C 478 265 488 273 498 272
        C 509 271 516 262 515 251
        C 514 240 504 232 492 232
        Z

        M 604 232
        C 592 232 586 242 588 254
        C 590 265 599 273 610 272
        C 621 271 628 262 627 251
        C 626 240 616 232 604 232
        Z

        M 502 240
        C 497 240 496 244 497 247
        C 498 251 503 252 507 249
        C 510 246 508 241 502 240
        Z

        M 612 240
        C 608 241 607 245 609 249
        C 611 252 616 252 619 248
        C 622 244 618 240 612 240
        Z

        M 543 268
        C 553 267 566 268 573 273
        C 581 279 581 288 575 295
        C 571 300 565 303 557 306
        C 557 314 565 321 575 321
        C 584 321 589 315 591 307
        C 592 304 598 304 599 308
        C 600 315 592 325 584 328
        C 581 329 577 330 573 331
        C 572 343 565 354 553 358
        C 542 361 532 354 529 342
        C 528 338 528 334 529 330
        C 518 329 507 321 503 311
        C 501 305 508 303 511 308
        C 516 317 525 322 535 320
        C 542 318 546 312 544 306
        C 539 305 532 300 527 293
        C 521 284 525 274 543 268
        Z

        M 538 329
        C 537 339 541 350 551 350
        C 561 350 566 340 563 330
        C 561 327 557 325 554 324
        C 554 331 553 335 549 336
        C 545 335 544 330 548 324
        C 544 325 540 326 538 329
        Z
    "/>
</svg>