<svg viewBox="372 117 361 254" xmlns="http://www.w3.org/2000/svg"><style>.favicon{fill:#c98e5f}.favicon-detail{fill:#111}.favicon-eye-highlight{fill:#fff}.favicon-tongue{fill:#e85050}.favicon-dog{transform-box:fill-box;transform-origin:50% 100%;animation:dog-breathe 2.8s ease-in-out infinite}.favicon-eye-open,.favicon-highlight{animation:eye-open 3.2s ease-in-out infinite}.favicon-eye-close{opacity:0;animation:eye-close 3.2s ease-in-out infinite}.favicon-mouth{transform-box:fill-box;transform-origin:50% 70%;animation:dog-mouth 2.8s ease-in-out infinite}.favicon-tongue{transform-box:fill-box;transform-origin:50% 0%;animation:dog-tongue 2.8s ease-in-out infinite}@keyframes dog-breathe{0%,100%{transform:scaleY(1)}50%{transform:scaleY(.985)}}@keyframes eye-open{0%,88%,100%{opacity:1}91%,96%{opacity:0}}@keyframes eye-close{0%,88%,100%{opacity:0}91%,96%{opacity:1}}@keyframes dog-mouth{0%,100%{transform:scaleY(1)}50%{transform:scaleY(1.035)}}@keyframes dog-tongue{0%,100%{transform:scaleY(1)}50%{transform:scaleY(1.08)}}@media(prefers-color-scheme:dark){.favicon{fill:#fff}.favicon-tongue{fill:#fff}}</style><g class="favicon-dog"><path class="favicon" fill-rule="evenodd" d="M553 124c-3-5-5-8-3-7-9 4-19 15-26 27-8 1-17 4-27 9-5 2-10 5-13 7-7-4-16-7-25-7-12 0-22 6-32 17-20 19-38 44-48 67-7 15-8 29 0 40 9 11 22 15 36 11 20-4 34-18 41-34 8-25 18-46 31-59-10 30-20 58-28 85-13 41 11 72 45 83 14 5 31 8 47 8 17 0 34-3 49-8 34-11 58-42 46-83-8-27-17-54-27-83 14 11 27 32 35 57 8 22 25 36 43 36 16-1 29-12 32-27 4-16-2-33-13-51-12-20-28-38-42-49-12-9-25-12-36-10-8 1-16 4-20 7-12-7-26-13-41-17 2-6 9-15 7-16-11-1-21 3-30 11 0-5 0-10-1-14z"/><g><path class="favicon-detail favicon-eye-open" d="M492 232c-13 0-18 12-16 22 2 11 12 19 22 18 11-1 18-10 17-21s-11-19-23-19z"/><path class="favicon-eye-highlight favicon-highlight" d="M502 240c-5 0-6 4-5 7 1 4 6 5 10 2 3-3 1-8-5-9z"/><path class="favicon-detail favicon-eye-close" d="M480 252h32c3 0 3 5 0 5h-32c-3 0-3-5 0-5z"/></g><g><path class="favicon-detail favicon-eye-open" d="M604 232c-12 0-18 10-16 22 2 11 11 19 22 18s18-10 17-21-11-19-23-19z"/><path class="favicon-eye-highlight favicon-highlight" d="M612 240c-4 1-5 5-3 9 2 3 7 3 10-1s-1-8-7-8z"/><path class="favicon-detail favicon-eye-close" d="M592 252h32c3 0 3 5 0 5h-32c-3 0-3-5 0-5z"/></g><g class="favicon-mouth"><path class="favicon-detail" d="M543 268c10-1 23 0 30 5 8 6 8 15 2 22-4 5-10 8-18 11 0 8 8 15 18 15 9 0 14-6 16-14 1-3 7-3 8 1 1 7-7 17-15 20-3 1-7 2-11 3-1 12-8 23-20 27-11 3-21-4-24-16-1-4-1-8 0-12-11-1-22-9-26-19-2-6 5-8 8-3 5 9 14 14 24 12 7-2 11-8 9-14-5-1-12-6-17-13-6-9-2-19 16-25z"/><path class="favicon-tongue" d="M538 329c-1 10 3 21 13 21s15-10 12-20c-2-3-6-5-9-6 0 7-1 11-5 12-4-1-5-6-1-12-4 1-8 2-10 5z"/></g></g></svg>