<svg viewBox="352 97 1343 309" xmlns="http://www.w3.org/2000/svg" fill="#fff">
    <path fill-rule="evenodd" d="
        M 550 117 L 547 118 L 523 144 L 515 145 L 504 149 L 484 160 L 468 153 L 453 153 L 439 159 L 432 164 L 404 192 L 387 216 L 376 237 L 373 247 L 372 259 L 374 268 L 378 276 L 387 285 L 399 290 L 411 290 L 421 286 L 431 277 L 434 272 L 449 225 L 456 211 L 464 200 L 465 204 L 457 225 L 448 270 L 444 281 L 436 292 L 436 303 L 438 313 L 447 334 L 454 344 L 465 355 L 477 364 L 496 374 L 509 379 L 525 383 L 540 385 L 562 385 L 590 380 L 604 375 L 622 366 L 632 359 L 646 346 L 655 334 L 661 322 L 665 309 L 666 292 L 660 284 L 655 273 L 647 231 L 640 209 L 637 204 L 638 200 L 643 206 L 652 222 L 660 244 L 666 268 L 671 277 L 681 286 L 691 290 L 703 290 L 716 284 L 723 277 L 727 270 L 729 263 L 729 248 L 724 233 L 707 204 L 692 185 L 669 163 L 660 157 L 649 153 L 634 153 L 618 160 L 598 149 L 577 143 L 577 139 L 584 127 L 571 127 L 557 134 L 553 134 L 553 124 Z
        M 1584 173 L 1560 174 L 1544 178 L 1520 189 L 1510 196 L 1498 207 L 1485 225 L 1478 240 L 1473 261 L 1474 283 L 1479 300 L 1487 316 L 1496 328 L 1507 339 L 1529 353 L 1549 360 L 1576 364 L 1596 362 L 1612 358 L 1632 349 L 1647 338 L 1657 327 L 1667 309 L 1672 293 L 1674 280 L 1674 257 L 1672 255 L 1578 255 L 1576 257 L 1576 290 L 1579 293 L 1621 294 L 1621 302 L 1618 307 L 1608 316 L 1596 321 L 1585 323 L 1569 323 L 1558 321 L 1546 316 L 1532 303 L 1526 293 L 1523 283 L 1522 259 L 1528 241 L 1534 232 L 1541 225 L 1555 217 L 1562 215 L 1586 214 L 1605 220 L 1611 224 L 1622 236 L 1662 216 L 1645 197 L 1634 189 L 1613 179 Z
        M 910 178 L 907 177 L 866 177 L 864 178 L 863 300 L 859 312 L 852 319 L 839 323 L 831 323 L 822 321 L 812 315 L 805 308 L 770 330 L 776 338 L 790 350 L 805 358 L 819 362 L 834 364 L 849 363 L 866 359 L 879 353 L 889 346 L 900 334 L 907 320 L 911 303 Z
        M 1087 178 L 1084 177 L 1042 177 L 1040 179 L 1040 301 L 1038 309 L 1032 317 L 1025 321 L 1003 322 L 995 319 L 984 308 L 982 308 L 949 329 L 948 331 L 965 348 L 983 358 L 997 362 L 1013 364 L 1026 363 L 1046 358 L 1058 352 L 1065 347 L 1076 336 L 1084 321 L 1088 304 Z
        M 1145 177 L 1141 179 L 1141 358 L 1143 360 L 1189 359 L 1190 357 L 1190 180 L 1187 177 Z
        M 1242 178 L 1241 358 L 1243 360 L 1289 359 L 1290 254 L 1298 254 L 1387 360 L 1431 359 L 1432 181 L 1430 178 L 1428 177 L 1386 177 L 1384 178 L 1382 282 L 1375 282 L 1368 275 L 1330 228 L 1287 178 L 1284 177 L 1244 177 Z
        M 492 232 L 499 232 L 506 235 L 513 242 L 515 247 L 515 257 L 512 263 L 504 270 L 497 272 L 493 272 L 485 269 L 478 262 L 475 254 L 476 246 L 479 240 L 486 234 Z
        M 604 232 L 611 232 L 618 235 L 624 241 L 627 247 L 627 256 L 623 264 L 619 268 L 609 272 L 601 271 L 595 268 L 591 264 L 587 256 L 587 248 L 590 241 L 596 235 Z
        M 502 240 L 497 244 L 497 247 L 499 250 L 504 251 L 508 248 L 508 244 L 506 241 Z
        M 612 240 L 609 242 L 608 247 L 610 250 L 615 251 L 619 248 L 620 245 L 617 241 Z
        M 543 268 L 565 269 L 572 272 L 578 278 L 579 286 L 576 293 L 565 303 L 556 306 L 557 312 L 562 318 L 570 321 L 576 321 L 586 316 L 590 308 L 593 305 L 596 305 L 599 308 L 598 315 L 589 325 L 584 328 L 573 331 L 572 344 L 568 351 L 562 356 L 553 359 L 545 358 L 539 355 L 531 346 L 529 330 L 524 330 L 514 326 L 508 321 L 503 313 L 503 308 L 506 305 L 509 305 L 517 317 L 526 321 L 536 320 L 544 314 L 545 312 L 544 305 L 539 304 L 534 301 L 526 293 L 523 286 L 524 279 L 530 272 Z
        M 538 329 L 538 340 L 542 347 L 545 349 L 553 350 L 559 348 L 562 345 L 564 340 L 564 330 L 562 328 L 554 324 L 554 334 L 549 336 L 548 324 Z
    "/>
</svg>
