<svg viewBox="0 0 24 24" xmlns="http://www.w3.org/2000/svg" fill="none" stroke="#000" stroke-width="2" stroke-linecap="round" stroke-linejoin="round">
    <path d="M12 15.5A3.5 3.5 0 1 0 12 8a3.5 3.5 0 0 0 0 7.5Z"/>
    <path d="M19.4 15a1.7 1.7 0 0 0 .34 1.87l.06.06a2 2 0 1 1-2.83 2.83l-.06-.06A1.7 1.7 0 0 0 15 19.36a1.7 1.7 0 0 0-1 .58 1.7 1.7 0 0 0-.4 1.06V21a2 2 0 1 1-4 0v-.08a1.7 1.7 0 0 0-.4-1.06 1.7 1.7 0 0 0-1-.58 1.7 1.7 0 0 0-1.87.34l-.06.06a2 2 0 1 1-2.83-2.83l.06-.06A1.7 1.7 0 0 0 4.64 15a1.7 1.7 0 0 0-.58-1 1.7 1.7 0 0 0-1.06-.4H3a2 2 0 1 1 0-4h.08a1.7 1.7 0 0 0 1.06-.4 1.7 1.7 0 0 0 .58-1 1.7 1.7 0 0 0-.34-1.87l-.06-.06A2 2 0 1 1 7.15 3.44l.06.06A1.7 1.7 0 0 0 9 3.84a1.7 1.7 0 0 0 1-.58A1.7 1.7 0 0 0 10.4 2V2a2 2 0 1 1 4 0v.08a1.7 1.7 0 0 0 .4 1.06 1.7 1.7 0 0 0 1 .58 1.7 1.7 0 0 0 1.87-.34l.06-.06a2 2 0 1 1 2.83 2.83l-.06.06A1.7 1.7 0 0 0 19.36 9c.34.2.67.4 1 .58.33.2.7.4 1.06.4H21a2 2 0 1 1 0 4h-.08a1.7 1.7 0 0 0-1.06.4 1.7 1.7 0 0 0-.46.62Z"/>
</svg>